<svg width="44" height="44" viewBox="0 0 44 44" fill="none" xmlns="http://www.w3.org/2000/svg">
<path fill-rule="evenodd" clip-rule="evenodd" d="M22.2539 3.51046C22.1659 3.31251 21.885 3.31251 21.797 3.51046L19.6832 8.26652C20.4447 8.13781 21.2273 8.0708 22.0255 8.0708C22.8237 8.0708 23.6062 8.13781 24.3678 8.26652L22.2539 3.51046ZM22.2539 40.5405L24.3678 35.7845C23.6062 35.9132 22.8237 35.9802 22.0255 35.9802C21.2273 35.9802 20.4447 35.9132 19.6832 35.7845L21.797 40.5405C21.885 40.7385 22.1659 40.7385 22.2539 40.5405ZM33.4103 30.0971L35.2791 34.9561C35.3569 35.1582 35.1582 35.3569 34.9561 35.2791L30.097 33.4103C31.3787 32.5 32.5 31.3787 33.4103 30.0971ZM10.6406 13.9538L8.77172 9.09488C8.69396 8.89269 8.89262 8.69403 9.0948 8.77179L13.9538 10.6406C12.6722 11.5509 11.5509 12.6722 10.6406 13.9538ZM40.5405 21.7971L35.7844 19.6833C35.9131 20.4448 35.9801 21.2273 35.9801 22.0255C35.9801 22.8237 35.9131 23.6062 35.7844 24.3678L40.5405 22.254C40.7384 22.166 40.7384 21.885 40.5405 21.7971ZM3.51041 21.7971C3.31245 21.885 3.31245 22.166 3.51041 22.254L8.26652 24.3678C8.13781 23.6062 8.0708 22.8237 8.0708 22.0255C8.0708 21.2273 8.13781 20.4448 8.26652 19.6833L3.51041 21.7971ZM30.097 10.6406L34.9561 8.77179C35.1582 8.69403 35.3569 8.89269 35.2791 9.09488L33.4103 13.9538C32.5 12.6722 31.3787 11.5509 30.097 10.6406ZM13.9538 33.4103L9.0948 35.2791C8.89262 35.3569 8.69396 35.1582 8.77172 34.9561L10.6406 30.0971C11.5509 31.3787 12.6722 32.5 13.9538 33.4103ZM21.9999 31.1666C16.9373 31.1666 12.8332 27.0626 12.8332 22C12.8332 16.9373 16.9373 12.8333 21.9999 12.8333C27.0625 12.8333 31.1666 16.9373 31.1666 22C31.1666 27.0626 27.0625 31.1666 21.9999 31.1666ZM21.9999 16.5C25.0375 16.5 27.4999 18.9624 27.4999 22C27.4999 25.0375 25.0375 27.5 21.9999 27.5C18.9623 27.5 16.4999 25.0375 16.4999 22C16.4999 18.9624 18.9623 16.5 21.9999 16.5Z" fill="black"/>
</svg>
