<svg width="238" height="20" viewBox="0 0 238 20" fill="none" xmlns="http://www.w3.org/2000/svg">
<path d="M32.7334 14.2031C32.7334 15.2113 32.903 15.9364 33.2363 16.3613C33.5669 16.7805 34.0893 16.9941 34.7891 16.9941C35.2084 16.9941 35.6111 16.9161 35.9805 16.7578C37.1831 16.2466 37.9883 15.0357 37.9883 13.7441V5.38379H41.4023V19.6504H38.4805L38.1553 17.2939C38.1268 17.3388 38.0929 17.3955 38.0537 17.46L38.0527 17.4609V17.4619H38.0518V17.4639H38.0508C37.8639 17.7711 37.5651 18.262 37.2383 18.6025C36.7467 19.108 36.2218 19.4304 35.6357 19.6582C35.0498 19.8859 34.4167 19.9999 33.7559 20C32.7783 20 31.9503 19.7944 31.292 19.3945C30.6309 18.9945 30.1336 18.3995 29.8086 17.6328C29.4865 16.8746 29.3223 15.9277 29.3223 14.8252V5.38379H32.7334V14.2031ZM20.0967 5.03906C20.9826 5.03906 21.8468 5.2081 22.6689 5.54688C23.4884 5.88576 24.2165 6.38051 24.8359 7.0166C25.4525 7.65264 25.9552 8.44427 26.333 9.36914C26.708 10.2913 26.8994 11.3554 26.8994 12.5303C26.8994 13.7024 26.708 14.7664 26.333 15.6914C25.9553 16.6163 25.4525 17.4079 24.8359 18.0439C24.2165 18.6828 23.4884 19.1722 22.6689 19.5C21.8496 19.8277 20.9827 19.9941 20.0967 19.9941C19.208 19.9941 18.35 19.8277 17.5391 19.5C16.728 19.1694 15.9998 18.6801 15.3721 18.0439C14.7444 17.4079 14.2416 16.6163 13.875 15.6914C13.5084 14.7664 13.3223 13.7024 13.3223 12.5303C13.3223 11.3581 13.5084 10.2941 13.875 9.36914C14.2417 8.44426 14.7444 7.65265 15.3721 7.0166C15.9998 6.3805 16.728 5.88576 17.5391 5.54688C18.3499 5.21092 19.2108 5.03911 20.0967 5.03906ZM60.2383 6.58887C61.8299 5.21943 64 4.68357 66.125 5.27246C67.9579 5.78083 69.0718 6.96101 69.6885 8.56348C69.8274 8.93014 69.9445 9.32214 70.0361 9.73047C70.3084 10.9527 70.3185 12.1863 70.1074 13.5029H61.0273C61.1551 14.5388 61.4552 15.4552 62.0771 16.1523C62.3327 16.4412 62.6437 16.6948 63.0215 16.9004C64.3659 17.6309 66.0551 17.2634 66.9551 16.0439C67.0967 15.8551 67.2304 15.6444 67.3525 15.4111C68.2746 15.6555 69.1495 15.886 70.2021 16.1582C69.9383 16.8415 69.5857 17.4891 69.0996 18.0391C68.2246 19.0307 67.0076 19.6304 65.7188 19.8721C62.9966 20.3831 60.2221 19.1498 58.7832 16.7832C57.2527 14.2638 57.3604 10.7777 58.8408 8.2666C59.2241 7.61664 59.6967 7.05551 60.2383 6.58887ZM108.344 5.02246C109.23 5.02246 110.094 5.19144 110.916 5.53027C111.735 5.86916 112.464 6.36389 113.083 7C113.7 7.63605 114.202 8.42767 114.58 9.35254C114.955 10.2747 115.146 11.3387 115.146 12.5137C115.146 13.6858 114.955 14.7498 114.58 15.6748C114.202 16.5997 113.7 17.3913 113.083 18.0273C112.464 18.6662 111.735 19.1556 110.916 19.4834C110.097 19.8111 109.23 19.9775 108.344 19.9775C107.455 19.9775 106.596 19.8112 105.785 19.4834C104.974 19.1528 104.247 18.6634 103.619 18.0273C102.991 17.3912 102.489 16.5998 102.122 15.6748C101.755 14.7498 101.569 13.6859 101.569 12.5137C101.569 11.3415 101.755 10.2775 102.122 9.35254C102.489 8.42767 102.991 7.63604 103.619 7C104.247 6.36401 104.974 5.86914 105.785 5.53027C106.596 5.19418 107.458 5.02248 108.344 5.02246ZM87.3779 5.04688C88.725 4.99696 90.1357 5.33104 91.2217 6.15039C92.0939 6.80039 92.6916 7.71959 93.1055 8.7168C92.6535 8.82742 92.1865 8.95452 91.7207 9.08203C91.2275 9.21704 90.735 9.35253 90.2607 9.4668C90.2607 9.4668 90.1022 9.14978 90.0244 9.01367C89.4661 8.0112 88.3416 7.43633 87.2002 7.67773C86.5142 7.82215 85.767 8.30542 85.6641 9.04688C85.6085 9.45515 85.7553 9.88592 86.0469 10.1748C86.4081 10.5311 87.0153 10.6709 87.5254 10.7881H87.5264C87.5847 10.8015 87.642 10.815 87.6973 10.8281C87.9269 10.8826 88.1623 10.9336 88.4004 10.9854C89.631 11.253 90.9339 11.5361 91.8857 12.3691C92.9134 13.2691 93.4054 14.5443 93.2139 15.9053C93.0833 16.8136 92.6667 17.6892 92.0195 18.3447C90.9362 19.4391 89.3721 19.9416 87.8555 19.9639C86.8139 19.9778 85.7444 19.7694 84.8027 19.3223C83.4444 18.6778 82.5193 17.5526 81.9609 16.1748C82.5713 16.0144 83.1298 15.8651 83.6719 15.7197L83.6748 15.7188L83.6758 15.7178C84.0522 15.6168 84.4211 15.5178 84.7939 15.4189C85.6273 16.9828 86.8359 17.6032 88.4609 17.2754C89.1803 17.1282 89.8521 16.6361 89.9883 15.8779C90.1744 14.8335 89.3162 14.2054 88.4023 13.9971C88.2542 13.9631 88.1057 13.93 87.957 13.8965C86.8288 13.6419 85.6901 13.3848 84.6299 12.9111C81.6025 11.561 81.8555 7.66341 84.1582 6.06348C85.097 5.41082 86.2419 5.08854 87.3779 5.04688ZM202.797 4.66309C203.78 4.66309 204.676 4.83227 205.484 5.16895C206.306 5.49215 207.006 5.97676 207.585 6.62305C208.164 7.25597 208.615 8.04372 208.938 8.98633C209.262 9.91553 209.423 10.9862 209.423 12.1982C209.423 13.4101 209.262 14.4941 208.938 15.4502C208.629 16.3927 208.184 17.1876 207.605 17.834C207.026 18.4804 206.325 18.9719 205.504 19.3086C204.696 19.6452 203.793 19.8135 202.797 19.8135C201.814 19.8134 200.912 19.6522 200.091 19.3291C199.283 18.9924 198.582 18.507 197.989 17.874C197.41 17.2278 196.96 16.4335 196.637 15.4912C196.314 14.5485 196.151 13.4708 196.151 12.2588C196.151 11.0468 196.314 9.96904 196.637 9.02637C196.973 8.08405 197.431 7.2898 198.01 6.64355C198.602 5.99727 199.303 5.50561 200.11 5.16895C200.932 4.83233 201.827 4.66314 202.797 4.66309ZM50.375 15.6387L54.5049 1.0498H58.1855L52.3828 19.6504H48.3662L42.5635 1.0498H46.2412L50.375 15.6387ZM7.27441 9.86426L10.8359 1.03613H14.5498L9.02734 13.6553V19.6387H5.51953V13.6553L0 1.03613H3.71094L7.27441 9.86426ZM99.1436 19.6328H95.6943V5.36621H99.1436V19.6328ZM125.211 5.02246C126.216 5.0225 127.063 5.21979 127.732 5.61133C128.402 6.00577 128.916 6.59173 129.255 7.3584C129.591 8.11951 129.764 9.06423 129.767 10.167V19.6309H126.377V10.8135C126.377 9.79423 126.196 9.05776 125.841 8.63281C125.485 8.21093 124.938 7.9971 124.208 7.99707C123.225 7.99707 122.269 8.45832 121.655 9.23047C121.197 9.80543 120.955 10.5221 120.955 11.2998V19.6328H117.566V5.36621H120.508L120.819 7.66406C121.55 6.12246 122.638 5.59407 123.344 5.34961C123.944 5.14128 124.569 5.02246 125.211 5.02246ZM79.2695 5.08008C80.5286 4.91478 81.2701 5.23434 81.3291 5.25977C81.331 5.26059 81.3326 5.2606 81.333 5.26074L80.8721 8.5166C80.8721 8.5166 80.1632 8.34149 79.5576 8.33594C78.6217 8.33048 77.7076 8.64178 77.041 9.375C76.4467 10.0278 76.1133 11.1555 76.1133 12.0859V19.6143H72.6748V5.34766H75.6387L75.9746 7.79199C76.5996 6.36977 77.839 5.26619 79.2695 5.08008ZM144.186 5.02734C145.249 5.02734 146.125 5.14123 146.812 5.37012C147.512 5.59905 148.058 5.90927 148.448 6.2998C148.852 6.69021 149.128 7.14789 149.276 7.67285C149.438 8.18459 149.519 8.7305 149.519 9.30957C149.519 9.91556 149.438 10.4947 149.276 11.0469C149.115 11.5989 148.832 12.0835 148.428 12.501C148.024 12.9184 147.478 13.2488 146.791 13.4912C146.104 13.7335 145.236 13.8545 144.186 13.8545H141.196V19.4502H139.357V5.02734H144.186ZM153.458 17.7939H160.933L160.649 19.4502H151.6V5.02734H153.458V17.7939ZM174.729 19.4502H172.71L171.194 15.4307H165.014L163.498 19.4502H161.56L167.175 5.02734H169.135L174.729 19.4502ZM184.31 6.68359H179.543V19.4502H177.664V6.68359H172.896V5.02734H184.31V6.68359ZM194.805 6.66309H187.715V11.3906H194.36V13.0664H187.715V19.4502H185.856V5.02734H194.805V6.66309ZM216.427 5.02734C217.504 5.02734 218.386 5.14822 219.073 5.39062C219.76 5.63302 220.299 5.94934 220.689 6.33984C221.093 6.71689 221.369 7.14805 221.518 7.63281C221.666 8.11758 221.739 8.60919 221.739 9.10742C221.739 10.0232 221.544 10.8048 221.153 11.4512C220.776 12.0973 220.15 12.6023 219.275 12.9658L222.305 19.4502H220.225L217.497 13.4102C217.322 13.4371 217.134 13.4572 216.932 13.4707H213.538V19.4502H211.7V5.02734H216.427ZM231.008 17.2285L235.735 5.02734H237.957V19.4502H236.24V8.07715L231.715 19.4502H230.2L225.756 8.11816V19.4502H224.06V5.02734H226.362L231.008 17.2285ZM202.797 6.2793C202.016 6.27935 201.33 6.42141 200.737 6.7041C200.158 6.9869 199.667 7.39082 199.263 7.91602C198.872 8.44122 198.575 9.07378 198.373 9.81445C198.185 10.5416 198.091 11.3496 198.091 12.2383C198.091 13.1406 198.185 13.9625 198.373 14.7031C198.575 15.4303 198.872 16.0568 199.263 16.582C199.653 17.0936 200.138 17.4907 200.717 17.7734C201.309 18.0562 202.003 18.1972 202.797 18.1973C203.564 18.1973 204.238 18.0562 204.817 17.7734C205.41 17.4907 205.901 17.0937 206.292 16.582C206.683 16.0569 206.979 15.4303 207.181 14.7031C207.383 13.9624 207.483 13.1406 207.483 12.2383C207.483 11.3496 207.383 10.5416 207.181 9.81445C206.979 9.07385 206.675 8.44119 206.271 7.91602C205.881 7.39085 205.396 6.9869 204.817 6.7041C204.238 6.4213 203.564 6.2793 202.797 6.2793ZM20.0967 7.88379C19.0913 7.8839 18.294 8.30612 17.7246 9.13379C17.1526 9.96981 16.8614 11.114 16.8613 12.5303C16.8613 13.9303 17.1496 15.0643 17.7246 15.9004C18.2912 16.7307 19.0914 17.1503 20.0967 17.1504C21.1022 17.1504 21.9056 16.7308 22.4834 15.9004C23.0667 15.0615 23.3613 13.9275 23.3613 12.5303C23.3613 11.114 23.0665 9.97259 22.4834 9.13379C21.9056 8.30324 21.1022 7.88379 20.0967 7.88379ZM108.341 7.86621C107.335 7.8663 106.538 8.28867 105.969 9.11621C105.397 9.95228 105.105 11.0971 105.105 12.5137C105.105 13.9134 105.394 15.0467 105.969 15.8828C106.535 16.7133 107.335 17.1327 108.341 17.1328C109.346 17.1328 110.15 16.7134 110.728 15.8828C111.311 15.044 111.608 13.9106 111.605 12.5137C111.605 11.0971 111.311 9.95506 110.728 9.11621C110.15 8.28576 109.346 7.86621 108.341 7.86621ZM165.579 13.8145H170.629L168.084 7.12793L165.579 13.8145ZM141.196 12.2793H144.165C144.865 12.2793 145.445 12.2118 145.902 12.0771C146.36 11.9425 146.718 11.7471 146.974 11.4912C147.229 11.2354 147.404 10.9321 147.498 10.582C147.606 10.2184 147.66 9.81452 147.66 9.37012C147.66 8.91225 147.606 8.50834 147.498 8.1582C147.39 7.80808 147.202 7.51799 146.933 7.28906C146.663 7.06028 146.299 6.89187 145.842 6.78418C145.397 6.66305 144.832 6.60256 144.146 6.60254H141.196V12.2793ZM213.538 11.875H216.608C217.255 11.875 217.787 11.8145 218.204 11.6934C218.622 11.5587 218.952 11.3764 219.194 11.1475C219.437 10.9051 219.605 10.6158 219.699 10.2793C219.793 9.94263 219.841 9.56493 219.841 9.14746C219.841 8.74364 219.786 8.38677 219.679 8.07715C219.571 7.76751 219.383 7.50448 219.113 7.28906C218.858 7.06032 218.508 6.89188 218.063 6.78418C217.619 6.66298 217.053 6.60254 216.366 6.60254H213.538V11.875ZM66.0469 8.12207C64.9774 7.48597 63.8549 7.51389 62.791 8.125C62.7722 8.13529 62.7547 8.14711 62.7373 8.1582C62.7266 8.16502 62.7156 8.17142 62.7051 8.17773C62.2024 8.48602 61.8361 8.87786 61.5723 9.33887C61.2639 9.87219 61.0942 10.4944 61.0137 11.1777H67.2441C67.3719 10.2444 67.0578 9.15015 66.4912 8.50293C66.3551 8.34737 66.208 8.21651 66.0469 8.12207ZM97.4053 0C97.9912 2.27994e-05 98.4826 0.177726 98.8604 0.530273C99.2409 0.88305 99.4355 1.34175 99.4355 1.89453C99.4355 2.44727 99.2409 2.89971 98.8604 3.24414C98.4826 3.58576 97.9913 3.75877 97.4053 3.75879C96.8192 3.75879 96.3298 3.58581 95.9492 3.24414C95.5689 2.89976 95.375 2.44709 95.375 1.89453C95.375 1.34179 95.5687 0.883042 95.9492 0.530273C96.3298 0.177497 96.8192 0 97.4053 0Z" fill="#EBDBC8"/>
</svg>
