<svg width="24" height="24" viewBox="0 0 24 24" fill="none" xmlns="http://www.w3.org/2000/svg">
<path d="M10.5 2.5C14.9183 2.5 18.5 6.08172 18.5 10.5C18.5 12.3486 17.8703 14.0487 16.8174 15.4033L20.957 19.543C21.3476 19.9335 21.3476 20.5665 20.957 20.957C20.5665 21.3476 19.9335 21.3476 19.543 20.957L15.4033 16.8174C14.0487 17.8703 12.3486 18.5 10.5 18.5C6.08172 18.5 2.5 14.9183 2.5 10.5C2.5 6.08172 6.08172 2.5 10.5 2.5ZM10.5 4.5C7.18629 4.5 4.5 7.18629 4.5 10.5C4.5 13.8137 7.18629 16.5 10.5 16.5C13.8137 16.5 16.5 13.8137 16.5 10.5C16.5 7.18629 13.8137 4.5 10.5 4.5Z" fill="#121212"/>
</svg>
